<?xml version="1.0" encoding="UTF-8"?>
<svg width="143px" height="129px" viewBox="0 0 143 129" version="1.1" xmlns="http://www.w3.org/2000/svg" xmlns:xlink="http://www.w3.org/1999/xlink">
    <!-- Generator: Sketch 55 (78076) - https://sketchapp.com -->
    <title>icn_fluxo_influencer</title>
    <desc>Created with Sketch.</desc>
    <g id="Page-1" stroke="none" stroke-width="1" fill="none" fill-rule="evenodd">
        <g id="Artboard" transform="translate(-4.000000, -11.000000)" fill-rule="nonzero">
            <g id="icn_fluxo_influencer" transform="translate(4.000000, 11.000000)">
                <path d="M11.5200397,98.1833333 C12.9486112,99.6166667 14.3771826,100.333333 16.5200397,100.333333 L47.2343254,100.333333 C49.3771826,100.333333 50.805754,99.6166667 52.2343254,98.1833333 L68.6628969,80.2666667 C69.3771826,78.8333333 70.805754,78.8333333 71.5200397,78.8333333 C72.2343254,78.8333333 73.6628969,78.8333333 74.3771826,79.55 L90.805754,97.4666667 C92.2343254,98.9 94.3771826,99.6166667 95.805754,99.6166667 L125.805754,99.6166667 C127.948611,99.6166667 129.377183,98.9 130.805754,97.4666667 C135.805754,92.45 140.091468,87.4333333 142.234325,79.55 C143.662897,75.25 140.091468,70.95 135.091468,70.95 L120.805754,70.95 C120.805754,70.95 127.234325,58.05 127.948611,38.7 C128.662897,37.2666667 127.234325,35.8333333 125.091468,35.8333333 L125.091468,35.8333333 C105.805754,37.2666667 92.9486112,50.1666667 92.9486112,50.1666667 C92.9486112,50.1666667 92.9486112,22.2166667 74.3771826,1.43333333 C73.6628969,0.716666667 72.2343254,0 71.5200397,0 C70.805754,0 69.3771826,0.716666667 68.6628969,1.43333333 C50.0914683,22.2166667 50.0914683,50.1666667 50.0914683,50.1666667 C50.0914683,50.1666667 37.2343254,37.2666667 17.9486112,35.8333333 L17.9486112,35.8333333 C15.805754,35.8333333 14.3771826,37.2666667 14.3771826,39.4166667 C15.0914683,58.7666667 21.5200397,71.6666667 21.5200397,71.6666667 L7.23432544,71.6666667 C2.94861116,71.6666667 -0.622817414,75.9666667 0.0914682999,80.2666667 C2.23432544,88.15 6.52003973,93.1666667 11.5200397,98.1833333 Z" id="Path" fill-opacity="0.65" fill="#7C87FB"></path>
                <path d="M121.52004,114.666667 L21.5200397,114.666667 C17.2343254,114.666667 14.3771826,117.533333 14.3771826,121.833333 C14.3771826,126.133333 17.2343254,129 21.5200397,129 L121.52004,129 C125.805754,129 128.662897,126.133333 128.662897,121.833333 C128.662897,117.533333 125.805754,114.666667 121.52004,114.666667 Z" id="Path" fill="#4D5BED"></path>
            </g>
        </g>
    </g>
</svg>