<?xml version="1.0" encoding="UTF-8"?>
<svg width="143px" height="143px" viewBox="0 0 143 143" version="1.1" xmlns="http://www.w3.org/2000/svg" xmlns:xlink="http://www.w3.org/1999/xlink">
    <!-- Generator: Sketch 55 (78076) - https://sketchapp.com -->
    <title>icn_fluxo_chart</title>
    <desc>Created with Sketch.</desc>
    <g id="Page-1" stroke="none" stroke-width="1" fill="none" fill-rule="evenodd">
        <g id="Artboard" transform="translate(-4.000000, -4.000000)" fill-rule="nonzero">
            <g id="icn_fluxo_chart" transform="translate(4.000000, 4.000000)">
                <path d="M134.588235,126.176471 L134.588235,126.176471 L16.8235294,126.176471 L16.8235294,8.41176471 C16.8235294,3.36470588 13.4588235,0 8.41176471,0 L8.41176471,0 C3.36470588,0 0,3.36470588 0,8.41176471 L0,126.176471 C0,135.429412 7.57058824,143 16.8235294,143 L134.588235,143 C139.635294,143 143,139.635294 143,134.588235 C143,130.382353 139.635294,126.176471 134.588235,126.176471 Z" id="Path" fill="#4D5BED"></path>
                <path d="M134.588235,25.2352941 C132.064706,25.2352941 130.382353,26.0764706 128.7,27.7588235 L100.941176,55.5176471 L81.5941176,36.1705882 C78.2294118,32.8058824 73.1823529,32.8058824 69.8176471,36.1705882 L27.7588235,78.2294118 C24.3941176,81.5941176 24.3941176,86.6411765 27.7588235,90.0058824 C31.1235294,93.3705882 36.1705882,93.3705882 39.5352941,90.0058824 L39.5352941,90.0058824 L75.7058824,53.8352941 L95.0529412,73.1823529 C98.4176471,76.5470588 103.464706,76.5470588 106.829412,73.1823529 L140.476471,39.5352941 C143.841176,36.1705882 143.841176,31.1235294 140.476471,27.7588235 C138.794118,26.0764706 137.111765,25.2352941 134.588235,25.2352941 Z" id="Path" fill-opacity="0.65" fill="#7C87FB"></path>
            </g>
        </g>
    </g>
</svg>