<?xml version="1.0" encoding="UTF-8"?>
<svg width="143px" height="119px" viewBox="0 0 143 119" version="1.1" xmlns="http://www.w3.org/2000/svg" xmlns:xlink="http://www.w3.org/1999/xlink">
    <!-- Generator: Sketch 55 (78076) - https://sketchapp.com -->
    <title>icn_fluxo_cloud</title>
    <desc>Created with Sketch.</desc>
    <g id="Page-1" stroke="none" stroke-width="1" fill="none" fill-rule="evenodd">
        <g id="Artboard" transform="translate(-4.000000, -15.000000)" fill-rule="nonzero">
            <g id="icn_fluxo_cloud" transform="translate(4.000000, 15.000000)">
                <path d="M107.25,41.65 C111.420833,41.65 115.591667,42.245 119.166667,43.435 C118.570833,19.635 98.9083333,0 74.4791667,0 C57.2,-5.2846616e-15 42.3041667,9.52 35.1541667,23.8 C15.4916667,24.395 0,39.865 0,59.5 C0,79.135 16.0875,95.2 35.75,95.2 L67.3291667,95.2 C66.1375,91.63 65.5416667,87.465 65.5416667,83.3 C65.5416667,60.095 84.0125,41.65 107.25,41.65 Z" id="Path" fill-opacity="0.65" fill="#7C87FB"></path>
                <path d="M132.275,99.96 C135.254167,95.2 137.041667,89.25 137.041667,83.3 C137.041667,66.64 123.933333,53.55 107.25,53.55 C91.1625,53.55 77.4583333,67.235 77.4583333,83.3 C77.4583333,99.96 90.5666667,113.05 107.25,113.05 C113.208333,113.05 119.166667,111.265 123.933333,108.29 L132.870833,117.215 C135.254167,119.595 138.829167,119.595 141.2125,117.215 C143.595833,114.835 143.595833,111.265 141.2125,108.885 L132.275,99.96 Z M107.25,101.15 C97.1208333,101.15 89.375,93.415 89.375,83.3 C89.375,73.185 97.1208333,65.45 107.25,65.45 C117.379167,65.45 125.125,73.185 125.125,83.3 C125.125,93.415 117.379167,101.15 107.25,101.15 Z" id="Shape" fill="#4D5BED"></path>
            </g>
        </g>
    </g>
</svg>