<?xml version="1.0" encoding="UTF-8"?>
<svg width="139px" height="108px" viewBox="0 0 139 108" version="1.1" xmlns="http://www.w3.org/2000/svg" xmlns:xlink="http://www.w3.org/1999/xlink">
    <!-- Generator: Sketch 55 (78076) - https://sketchapp.com -->
    <title>icn_fluxo_quote</title>
    <desc>Created with Sketch.</desc>
    <g id="Page-1" stroke="none" stroke-width="1" fill="none" fill-rule="evenodd">
        <g id="Artboard" transform="translate(-4.000000, -21.000000)" fill-rule="nonzero">
            <g id="icn_fluxo_quote" transform="translate(4.000000, 21.000000)">
                <path d="M58.4434783,0.520269789 C16.1652174,3.62553295 0,27.2255329 0,58.8992172 L0,95.5413224 C0,102.372901 5.59565217,107.962375 12.4347826,107.962375 L46.0086957,107.962375 C52.8478261,107.962375 58.4434783,102.372901 58.4434783,95.5413224 L58.4434783,65.1097435 C58.4434783,58.2781645 52.8478261,52.6886908 46.0086957,52.6886908 L39.1695652,52.6886908 C39.1695652,37.1623751 39.7913043,29.7097435 58.4434783,26.6044803 L58.4434783,0.520269789 Z" id="_x201C_" fill="#4A5CF6"></path>
                <path d="M138.026087,0.520269789 C95.7478261,3.62553295 79.5826087,27.2255329 79.5826087,58.8992172 L79.5826087,95.5413224 C79.5826087,102.372901 85.1782609,107.962375 92.0173913,107.962375 L125.591304,107.962375 C132.430435,107.962375 138.026087,102.372901 138.026087,95.5413224 L138.026087,65.1097435 C138.026087,58.2781645 132.430435,52.6886908 125.591304,52.6886908 L118.752174,52.6886908 C118.752174,37.1623751 119.373913,29.7097435 138.026087,26.6044803 L138.026087,0.520269789 Z" id="Path" fill-opacity="0.65" fill="#7C87FB"></path>
            </g>
        </g>
    </g>
</svg>