<?xml version="1.0" encoding="UTF-8"?>
<svg width="111px" height="32px" viewBox="0 0 111 32" version="1.1" xmlns="http://www.w3.org/2000/svg" xmlns:xlink="http://www.w3.org/1999/xlink">
    <!-- Generator: Sketch 53 (72520) - https://sketchapp.com -->
    <title>logo-footer</title>
    <desc>Created with Sketch.</desc>
    <g id="Page-1" stroke="none" stroke-width="1" fill="none" fill-rule="evenodd">
        <g id="White" transform="translate(-1225.000000, -784.000000)">
            <g id="logo-footer" transform="translate(1225.000000, 784.000000)">
                <polyline id="Fill-3" fill="#44BEE2" points="-5.68434189e-14 6.4 -5.68434189e-14 32 12.7330059 32 12.7330059 19.2 25.4653588 19.2 25.4653588 6.4 -5.68434189e-14 6.4"></polyline>
                <polyline id="Fill-4" fill="#FFFFFE" points="54.6893735 12.9209436 46.0101529 12.9209436 46.0101529 7.15864615 56.2025647 7.15864615 56.2025647 3.63634872 42.0435353 3.63634872 42.0435353 25.4175179 46.0101529 25.4175179 46.0101529 16.4434051 54.6893735 16.4434051 54.6893735 12.9209436"></polyline>
                <path d="M62.2177853,20.7064615 L62.2177853,3.63634872 L58.5286676,3.63634872 L58.5286676,20.9547487 C58.5286676,22.1709128 58.9155353,23.2315077 59.6778441,24.107159 C60.4336235,24.9765744 61.5713735,25.4175179 63.0600794,25.4175179 L65.1821382,25.4175179 L65.1821382,22.3299282 L63.8011676,22.3299282 C62.7646235,22.3299282 62.2177853,21.7685333 62.2177853,20.7064615" id="Fill-5" fill="#FFFFFE"></path>
                <path d="M71.7915353,21.5422359 C71.2332706,21.0363077 70.9492412,20.2430359 70.9492412,19.1847385 L70.9492412,9.56750769 L67.2601235,9.56750769 L67.2601235,19.7436718 C67.2601235,20.6747897 67.3776529,21.5146667 67.6078147,22.24 C67.8363441,22.9564718 68.2542265,23.6237128 68.8500353,24.2233436 C69.7608882,25.1393641 70.9998441,25.6037744 72.5342559,25.6037744 C73.2704471,25.6037744 73.98705,25.4616615 74.6644765,25.1813744 C75.3402706,24.9014154 75.9360794,24.4962462 76.4323147,23.9771897 L76.7130794,23.6834462 L76.7130794,25.4175179 L80.3091529,25.4175179 L80.3091529,9.56750769 L76.6200353,9.56750769 L76.6200353,19.1847385 C76.6200353,20.2428718 76.3360059,21.0361436 75.7777412,21.5424 C75.2243735,22.0443897 74.5485794,22.2989128 73.7699471,22.2989128 C73.0109029,22.2989128 72.3449029,22.0443897 71.7915353,21.5422359" id="Fill-6" fill="#FFFFFE"></path>
                <polyline id="Fill-7" fill="#FFFFFE" points="96.8350941 9.56750769 92.4163147 9.56750769 89.5743882 14.3514256 86.7634765 9.56750769 82.3463294 9.56750769 87.5796529 17.3215179 82.1292265 25.4175179 86.5496382 25.4175179 89.5743882 20.4230564 92.6317853 25.4175179 97.0521971 25.4175179 91.6017706 17.3215179 96.8350941 9.56750769"></polyline>
                <path d="M107.00955,19.9284513 C106.890388,20.580759 106.619418,21.1218051 106.206432,21.5364923 C105.703668,22.0424205 105.031138,22.2989128 104.208432,22.2989128 C103.403682,22.2989128 102.740947,22.0422564 102.239815,21.5364923 C101.846418,21.1198359 101.581976,20.580759 101.453021,19.931241 C101.327329,19.3017436 101.263668,18.4761436 101.263668,17.4769231 C101.263668,16.4777026 101.327329,15.6519385 101.453021,15.0226051 C101.581976,14.3721026 101.846418,13.8423795 102.239815,13.4482051 C102.742579,12.942441 103.405315,12.6861128 104.208432,12.6861128 C105.031138,12.6861128 105.703668,12.942441 106.206432,13.4482051 C106.619418,13.8404103 106.890388,14.3721026 107.00955,15.0252308 C107.123815,15.6555487 107.180947,16.4804923 107.180947,17.4769231 C107.180947,18.4733538 107.123815,19.2982974 107.00955,19.9284513 Z M110.489726,13.7777231 C110.241609,12.8470974 109.771491,12.0196923 109.094065,11.3186462 C108.555388,10.7564308 107.8698,10.2879179 107.060153,9.92590769 C106.250506,9.56438974 105.290682,9.38108718 104.208432,9.38108718 C103.12455,9.38108718 102.169624,9.55930256 101.369771,9.91081026 C100.569918,10.2626462 99.8924912,10.7354256 99.3538147,11.3161846 C98.6747559,12.0201846 98.2046382,12.8474256 97.9565206,13.7777231 C97.7035059,14.7213128 97.5761824,15.9658667 97.5761824,17.4769231 C97.5761824,19.0086564 97.7035059,20.2637128 97.9565206,21.2071385 C98.2046382,22.1379282 98.6747559,22.9653333 99.3521824,23.6662154 C99.8908588,24.2284308 100.569918,24.6969436 101.371403,25.0592821 C102.169624,25.4206359 103.12455,25.6037744 104.208432,25.6037744 C105.290682,25.6037744 106.250506,25.4204718 107.060153,25.0589538 C107.871432,24.6966154 108.555388,24.2282667 109.094065,23.6667077 C109.771491,22.9656615 110.241609,22.1384205 110.489726,21.2071385 C110.742741,20.2627282 110.870065,19.0075077 110.870065,17.4769231 C110.870065,15.9670154 110.742741,14.7222974 110.489726,13.7777231 L110.489726,13.7777231 Z" id="Fill-8" fill="#FFFFFE"></path>
                <polyline id="Fill-9" fill="#4D5B99" points="6.36617647 0 6.36617647 25.6 19.0991824 25.6 19.0991824 12.8 31.8315353 12.8 31.8315353 0 6.36617647 0"></polyline>
                <polyline id="Fill-10" fill="#FFFFFE" points="6.36617647 25.6 12.7330059 25.6 12.7330059 19.2 19.0991824 19.2 19.0991824 12.8 25.4653588 12.8 25.4653588 6.4 6.36617647 6.4 6.36617647 25.6"></polyline>
            </g>
        </g>
    </g>
</svg>